<svg xmlns="http://www.w3.org/2000/svg" width="169.466" height="169.466" viewBox="0 0 169.466 169.466"><defs><style>.a{fill:#bbb1a2;}.b{fill:#fff;}</style></defs><g transform="translate(-150.846 -448.351)"><circle class="a" cx="84.733" cy="84.733" r="84.733" transform="translate(150.846 448.351)"/><path class="b" d="M268.392,543.212h-1.407V498.174a9.852,9.852,0,1,0-19.7,0v64.742a7.045,7.045,0,0,1-7.038,7.037H224.762a7.045,7.045,0,0,1-7.038-7.037v-1.407h9.149a4.919,4.919,0,0,0,3.437-8.445,4.9,4.9,0,0,0-1.282-7.927,23.092,23.092,0,0,1,6.084-14.5,25.337,25.337,0,1,0-37.392.216,22.228,22.228,0,0,1,5.889,14.284,4.9,4.9,0,0,0-1.285,7.928,4.919,4.919,0,0,0,3.437,8.445h9.148v1.407a9.864,9.864,0,0,0,9.853,9.852h15.481a9.863,9.863,0,0,0,9.852-9.852V498.174a7.038,7.038,0,0,1,14.075,0v45.038h-1.408a7.045,7.045,0,0,0-7.037,7.037v11.26a1.407,1.407,0,0,0,1.408,1.407h2.815v9.852h2.814v-9.852h5.63v9.852h2.815v-9.852h2.815a1.407,1.407,0,0,0,1.407-1.407v-11.26A7.045,7.045,0,0,0,268.392,543.212Zm-68.6-14.273a22.517,22.517,0,1,1,33.238-.191,25.967,25.967,0,0,0-6.815,15.871h-8.486V530.541c.134,0,.257.005.406.005,2.931,0,8.6-.525,12.28-4.208,5.041-5.043,4.164-13.8,4.125-14.17a1.406,1.406,0,0,0-1.25-1.248c-.365-.04-9.126-.917-14.17,4.125a11.782,11.782,0,0,0-1.6,2.007,15.575,15.575,0,0,0-3.993-9.044c-5.041-5.042-13.8-4.165-14.17-4.126a1.409,1.409,0,0,0-1.25,1.249c-.039.37-.916,9.128,4.126,14.17,3.683,3.683,9.348,4.208,12.28,4.208.149,0,.271,0,.4-.006v3.8c0,.107,0,.216,0,.316v17h-8.483A25.047,25.047,0,0,0,199.787,528.939Zm29.2,20.606a2.113,2.113,0,0,1-2.111,2.111H205.761a2.111,2.111,0,1,1,0-4.222h21.112A2.113,2.113,0,0,1,228.984,549.545Zm-4.514-30.551-6.681,6.681c.192-2.616.916-6.239,3.316-8.64,3.118-3.115,8.355-3.406,10.692-3.374.041,2.337-.249,7.56-3.376,10.688-2.393,2.393-6.017,3.126-8.64,3.316l6.681-6.681Zm-11.617,1.633c-2.618-.192-6.238-.914-8.639-3.315-3.116-3.116-3.411-8.352-3.373-10.691,2.336-.034,7.558.248,10.689,3.377,2.389,2.388,3.116,6.014,3.311,8.633l-6.676-6.676-1.99,1.991Zm-7.092,38.067a2.111,2.111,0,0,1,0-4.223h21.112a2.111,2.111,0,0,1,0,4.223Zm66.853-4.223H261.355v2.815h11.259V560.1H258.54v-9.852a4.227,4.227,0,0,1,4.222-4.222h5.63a4.227,4.227,0,0,1,4.222,4.222Z"/></g></svg>