<svg xmlns="http://www.w3.org/2000/svg" width="169.466" height="169.466" viewBox="0 0 169.466 169.466"><defs><style>.a{fill:#bbb1a2;}.b{fill:#fff;}</style></defs><g transform="translate(-473.794 -448.351)"><circle class="a" cx="84.733" cy="84.733" r="84.733" transform="translate(473.794 448.351)"/><path class="b" d="M545.136,538.652a18.374,18.374,0,1,0-18.375-18.374,18.4,18.4,0,0,0,18.375,18.374Zm0-31.8a13.426,13.426,0,1,1-13.427,13.427,13.442,13.442,0,0,1,13.427-13.427Zm0,0,0,21.2a7.775,7.775,0,1,0-7.775-7.774,7.784,7.784,0,0,0,7.775,7.774Zm0-10.6a2.827,2.827,0,1,1-2.827,2.827,2.83,2.83,0,0,1,2.827-2.827Zm0,0,49.99,42.578a16.164,16.164,0,0,1,4.76-11.5,2.474,2.474,0,0,0-1.749-4.223H574.11V520.278a28.974,28.974,0,1,0-57.949,0v26.5a29.008,29.008,0,0,0,28.975,28.975h53a2.474,2.474,0,0,0,1.749-4.224,16.156,16.156,0,0,1-4.76-11.5Zm-49.99-63.778a24.027,24.027,0,1,1-24.027,24.027,24.053,24.053,0,0,1,24.027-24.027Zm24.026,40.2V544.3h-7.848a29.186,29.186,0,0,0,7.848-7.848ZM593.106,570.8h-47.97a24.054,24.054,0,0,1-24.027-24.027V536.489a29.2,29.2,0,0,0,3.538,4.278,28.783,28.783,0,0,0,20.486,8.485h47.973a21.3,21.3,0,0,0,0,21.553Zm0,0"/></g></svg>