<svg xmlns="http://www.w3.org/2000/svg" width="169.466" height="169.466" viewBox="0 0 169.466 169.466"><defs><style>.a{fill:#bbb1a2;}.b{fill:#fff;}</style></defs><g transform="translate(-796.742 -448.351)"><circle class="a" cx="84.733" cy="84.733" r="84.733" transform="translate(796.742 448.351)"/><path class="b" d="M897.785,522.405,881.954,502.02a1.606,1.606,0,0,0-1.262-.62h0a1.6,1.6,0,0,0-1.261.614l-15.9,20.278c-.029.036-.056.074-.081.112a22.108,22.108,0,1,0,34.354.02Zm-17.17,32.831a18.9,18.9,0,0,1-14.58-30.935,1.6,1.6,0,0,0,.124-.173l14.523-18.521,14.535,18.715c.019.027.038.052.059.078a18.9,18.9,0,0,1-14.661,30.836Zm15.607-15.575a15.62,15.62,0,0,1-9.248,10.835,1.6,1.6,0,0,1-1.219-2.964,12.411,12.411,0,0,0,7.348-8.606,1.6,1.6,0,1,1,3.119.735Zm-1.186-8.427a1.6,1.6,0,0,1,1.6,1.6v.032a1.6,1.6,0,0,1-3.205,0v-.032A1.6,1.6,0,0,1,895.036,531.234Zm-55.265,5.7a41.024,41.024,0,0,1,55.345-42.092,1.6,1.6,0,0,1,2.923-1.256l2.239,3.879a1.6,1.6,0,0,1-.586,2.189l-3.879,2.239a1.6,1.6,0,1,1-1.6-2.775l1.211-.7a37.818,37.818,0,0,0-52.46,38.221,1.6,1.6,0,0,1-1.449,1.743,1.484,1.484,0,0,1-.149.007A1.6,1.6,0,0,1,839.771,536.929ZM915,555.54a41.162,41.162,0,0,1-34.438,18.686,40.506,40.506,0,0,1-11.885-1.789,1.6,1.6,0,0,1-2.944,1.037l-2.375-3.751a1.6,1.6,0,0,1,.5-2.21l3.783-2.4a1.6,1.6,0,1,1,1.716,2.706l-1.515.96a37.455,37.455,0,0,0,23.124.775A37.988,37.988,0,0,0,918.1,528.2a1.6,1.6,0,1,1,3.176-.426A41,41,0,0,1,915,555.54Zm-53.742-3.268-.006-.008-8.164-10.738a1.6,1.6,0,0,0-1.272-.633h0a1.6,1.6,0,0,0-1.271.627l-8.2,10.682c-.019.025-.037.05-.055.076a12.569,12.569,0,0,0-2.688,7.775,12.179,12.179,0,1,0,24.354,0A12.581,12.581,0,0,0,861.258,552.272Zm-9.483,16.981a9.1,9.1,0,0,1-8.973-9.2,9.352,9.352,0,0,1,2.062-5.868,1.447,1.447,0,0,0,.1-.135l6.844-8.915,6.867,9.032c.016.023.033.045.05.066a9.362,9.362,0,0,1,2.024,5.82A9.1,9.1,0,0,1,851.775,569.253Zm6.889-9.2a6.954,6.954,0,0,1-6.889,7,1.6,1.6,0,1,1,0-3.2,3.747,3.747,0,0,0,3.685-3.8,1.6,1.6,0,0,1,3.2,0Zm41.3-56.487a12.572,12.572,0,0,0-2.689,7.776,12.179,12.179,0,1,0,24.354,0,12.577,12.577,0,0,0-2.694-7.781l-.006-.008-8.164-10.738a1.6,1.6,0,0,0-1.272-.633h0a1.6,1.6,0,0,0-1.271.627l-8.2,10.682C900,503.515,899.986,503.541,899.968,503.566Zm2.577,1.908a1.384,1.384,0,0,0,.1-.134l6.845-8.916,6.868,9.032c.016.023.032.045.049.066a9.357,9.357,0,0,1,2.025,5.82,8.976,8.976,0,1,1-17.946,0A9.358,9.358,0,0,1,902.545,505.474Zm5.309,11.269a1.6,1.6,0,0,1,1.6-1.6,3.747,3.747,0,0,0,3.685-3.8,1.6,1.6,0,0,1,3.205,0,6.956,6.956,0,0,1-6.89,7A1.6,1.6,0,0,1,907.854,516.743Z"/></g></svg>