<svg xmlns="http://www.w3.org/2000/svg" width="169.466" height="169.466" viewBox="0 0 169.466 169.466"><defs><style>.a{fill:#bbb1a2;}.b{fill:#fff;}</style></defs><g transform="translate(-1119.69 -448.351)"><circle class="a" cx="84.733" cy="84.733" r="84.733" transform="translate(1119.69 448.351)"/><path class="b" d="M1243.49,553.977c0-.023,0-.045,0-.067l-2.427-43.693a3.713,3.713,0,0,0-3.64-3.574H1171.56a3.713,3.713,0,0,0-3.639,3.574l-.135,2.428-2.293,41.265c0,.022,0,.044,0,.067h0v4.855a3.645,3.645,0,0,0,3.641,3.641h12.3v3.965H1179a3.645,3.645,0,0,0-3.641,3.641v1.214h-2.427v2.427h63.112v-2.427h-2.427v-1.214a3.645,3.645,0,0,0-3.642-3.641h-2.428v-3.965h12.3a3.645,3.645,0,0,0,3.641-3.641v-4.855Zm-3.034-10.923h-16l-.485-9.71h15.944Zm-.674-12.137h-15.93l-.478-9.548h15.877Zm-2.359-21.847a1.275,1.275,0,0,1,1.216,1.281l.477,8.591h-15.863l-.494-9.872Zm-31.718,0h14.624l.493,9.872H1205.7Zm0,12.3h15.238l.478,9.548H1205.7Zm0,11.975h15.837l.486,9.71H1205.7Zm0,12.137h16.444l.486,9.71H1205.7Zm-17.05-36.411h14.623v9.872h-15.117Zm-.615,12.3h15.238v9.548h-15.716Zm-.6,11.975h15.837v9.71h-16.322Zm-.607,12.137h16.444v9.71h-16.929Zm-16.489-35.13a1.274,1.274,0,0,1,1.215-1.281h14.664l-.493,9.872h-15.864l.36-6.464h0Zm-1.818,32.7.54-9.71h15.943l-.485,9.71Zm15.876,2.426-.485,9.71h-14.785a1.282,1.282,0,0,1-.926-.4,1.025,1.025,0,0,1-.288-.617v-.163l.474-8.53Zm-15.2-14.563.531-9.548h15.876l-.478,9.548Zm23.153,40.376H1177.79v-1.214a1.215,1.215,0,0,1,1.214-1.214h12.137a1.215,1.215,0,0,1,1.214,1.214Zm-8.5-4.855v-3.965h2.427v3.965Zm30.342,3.641v1.214h-19.419v-1.214a3.645,3.645,0,0,0-3.641-3.641h-2.427v-3.965h31.556v3.965h-2.428A3.645,3.645,0,0,0,1214.2,570.079Zm15.778-1.214a1.215,1.215,0,0,1,1.214,1.214v1.214h-14.564v-1.214a1.214,1.214,0,0,1,1.213-1.214Zm-7.282-2.427v-3.965h2.428v3.965Zm18.368-7.606a1.216,1.216,0,0,1-1.214,1.214h-70.718a1.215,1.215,0,0,1-1.214-1.214V557.41a3.67,3.67,0,0,0,1.214.208h70.718a3.673,3.673,0,0,0,1.214-.208Zm0-4.659a1.02,1.02,0,0,1-.29.617,1.275,1.275,0,0,1-.924.4h-14.785l-.486-9.71h16.011l.474,8.529ZM1198.423,523.8h2.428v2.428h-2.428Zm34.146-12.3H1235v2.427h-2.427ZM1215.7,535.772h2.427V538.2H1215.7Zm-11.205-38.506a8.242,8.242,0,0,0,8.233-8.233.838.838,0,0,0-.837-.838h-14.793a.837.837,0,0,0-.837.838,8.242,8.242,0,0,0,8.234,8.233Zm6.506-7.4a6.56,6.56,0,0,1-13.013,0Zm0,0-7.343,10.258v1.849a.837.837,0,1,0,1.674,0v-1.849a.837.837,0,1,0-1.674,0Zm0,0,8.09-3.842a.837.837,0,0,0,0,1.184l1.308,1.307a.837.837,0,0,0,1.184-1.183l-1.308-1.308a.837.837,0,0,0-1.184,0Zm0,0,3.842-6.416h1.849a.837.837,0,0,0,0-1.675h-1.849a.837.837,0,0,0,0,1.675Zm0,0-24.04,0h1.85a.837.837,0,0,0,0-1.675h-1.85a.837.837,0,0,0,0,1.675Zm0,0,3.792,9.153a.835.835,0,0,0,.592-.246l1.307-1.307a.837.837,0,0,0-1.183-1.184l-1.308,1.308a.838.838,0,0,0,.592,1.429Zm0,0"/></g></svg>