<?xml version="1.0" encoding="utf-8"?>
<!-- Generator: Adobe Illustrator 25.2.1, SVG Export Plug-In . SVG Version: 6.00 Build 0)  -->
<svg version="1.1" id="Capa_1" xmlns="http://www.w3.org/2000/svg" xmlns:xlink="http://www.w3.org/1999/xlink" x="0px" y="0px"
	 viewBox="0 0 1080 1080" style="enable-background:new 0 0 1080 1080;" xml:space="preserve">
<style type="text/css">
	.st0{opacity:0.62;}
	.st1{fill:none;stroke:#FFFFFF;stroke-width:0.5;stroke-miterlimit:10;}
</style>
<g>
	<g>
		<g class="st0">
			<g>
				<path class="st1" d="M279.29,851.6c-32.4-36.36-56.14-76.83-71.22-121.35l-1.96-4.92c-11.79-35.36-17.67-72.03-17.67-110.01
					c0-40.6,6.88-80.58,20.65-119.9c13.74-39.3,34.36-75,61.86-107.08c36.04-38.62,72.57-68.29,109.58-88.92
					c36.97-20.62,83.62-32.58,140-35.84h2.91c55.05-3.25,108.74,6.56,161.17,29.5c32.75,14.36,64.35,35.52,94.76,63.35
					c30.46,27.82,52.58,55.49,66.32,83c30.79,53.73,46.2,112,46.2,174.88c0,36.7-5.57,72.56-16.67,107.58
					c-11.17,35.07-27.55,67.66-49.14,97.74c-16.39,22.95-34.25,43.1-53.59,60.45c-19.28,17.35-43.04,33.55-71.17,48.6
					c-50.45,25.55-104.83,38.34-163.1,38.34c-49.79,0-97.26-9.84-142.49-29.51C350.54,916.61,311.73,887.93,279.29,851.6z
					 M707.17,764.63c17.67-20.31,30.47-39.63,38.35-57.97c13.07-30.08,19.62-60.91,19.62-92.34c0-43.2-11.79-83.66-35.39-121.33
					c-23.54-37.64-55.95-65.68-97.26-83.97c-30.09-13.13-61.23-19.69-93.3-19.69c-28.86,0-56.51,5.24-83.04,15.72
					c-26.53,10.52-50.26,25.9-71.22,46.18l-16.7,17.7c-17.68,21.58-30.94,44.86-39.79,69.76c-8.84,24.87-13.26,50.4-13.26,76.63
					c0,32.74,6.86,64.32,20.63,94.78c13.75,30.47,33.75,56.18,59.91,77.13c42.59,35.37,91.09,53.04,145.44,53.04
					c36.02,0,69.77-7.83,101.21-23.53C667.87,802.29,689.51,784.95,707.17,764.63z"/>
			</g>
			<polygon class="st1" points="669.45,195.29 581.59,195.29 549.66,157.2 517.7,195.29 430.17,195.29 517.7,113.27 581.59,113.27 
							"/>
		</g>
	</g>
</g>
</svg>
