<svg xmlns="http://www.w3.org/2000/svg" width="80.724" height="65.016" viewBox="0 0 80.724 65.016"><defs><style>.a{fill:#495561;}</style></defs><path class="a" d="M1286.269,63.815c.224-1.383.416-2.732.662-4.07a41.022,41.022,0,0,1,5.9-15.65,26.274,26.274,0,0,1,13.394-10.4,1.009,1.009,0,0,0,.748-.877,4.032,4.032,0,0,1,4.292-3.528c.268,0,.538-.015.806,0a2.6,2.6,0,0,0,2.72-1.021,3.291,3.291,0,0,1,2.832-1.142c1.321-.01,2.643-.018,3.965,0a4.117,4.117,0,0,1,3.444,1.776,1.037,1.037,0,0,0,.7.365c.781.046,1.567.008,2.351.02a4.032,4.032,0,0,1,4.109,3.352,1.323,1.323,0,0,0,.994,1.135c7.921,2.9,13.116,8.54,16.27,16.223a53.727,53.727,0,0,1,3.4,13.808c.409,0,.824,0,1.24,0a3.869,3.869,0,0,1,4.022,3.956q.036,2.454-.005,4.907a1.224,1.224,0,0,0,.538,1.119c1.767,1.368,1.825,3.44-.093,4.55-2.84,1.643-4.427,4.23-5.928,6.943-.508.92-.981,1.863-1.4,2.826a1.909,1.909,0,0,1-1.391,1.232c-2.313.5-4.609,1.151-6.949,1.46a195.986,195.986,0,0,1-32.666,1.135,120.222,120.222,0,0,1-14.851-1.265c-2.047-.33-4.058-.886-6.082-1.355a1.853,1.853,0,0,1-1.288-1.164,34.759,34.759,0,0,0-3.964-6.915,8.392,8.392,0,0,0-2.853-2.505,4.13,4.13,0,0,1-.825-.573,2.586,2.586,0,0,1,.161-4.336,1.346,1.346,0,0,0,.578-1.236c-.032-1.545-.017-3.092-.009-4.637a3.861,3.861,0,0,1,4.162-4.142Zm19.887-27.162c-.172.058-.272.083-.365.122a23.462,23.462,0,0,0-8.292,5.818,31.212,31.212,0,0,0-6.807,12.954,70.891,70.891,0,0,0-2.286,19.148c0,1.259-.629,1.8-1.876,1.6-1.126-.185-2.253-.369-3.372-.592a.858.858,0,0,0-1.041.4,3.688,3.688,0,0,0,.444.31,9.222,9.222,0,0,1,3.668,3.282c1.377,2.14,2.619,4.369,3.876,6.584a1.341,1.341,0,0,0,.915.773c1.246.27,2.479.606,3.735.816a130.844,130.844,0,0,0,18.268,1.477,198.066,198.066,0,0,0,26.448-.828c2.905-.315,5.775-.962,8.661-1.457a1.3,1.3,0,0,0,.967-.8c1.027-1.91,2.045-3.83,3.2-5.663a11.177,11.177,0,0,1,4.411-4.229,2.289,2.289,0,0,0,.357-.271l.009-.224a4.038,4.038,0,0,0-1.063-.143c-1.218.164-2.425.422-3.644.584a1.331,1.331,0,0,1-1.634-1.4c-.152-3.265-.216-6.539-.506-9.792a47.962,47.962,0,0,0-3.209-13.813,25.729,25.729,0,0,0-10.189-12.733c-1.176-.733-2.442-1.322-3.79-2.043.039.293.045.38.062.465.3,1.446.619,2.888.888,4.34a1.307,1.307,0,0,1-1.068,1.65c-.835.129-1.42-.344-1.621-1.311q-.875-4.2-1.748-8.408c-.123-.6-.407-1.11-1.032-1.173-.811-.082-1.637-.02-2.506-.02.047.258.078.454.118.649.885,4.295,1.813,8.581,2.639,12.888a3.98,3.98,0,0,1-3.86,4.718q-5.308.087-10.62,0a4.014,4.014,0,0,1-3.861-4.883c.647-3.2,1.324-6.4,1.986-9.6.256-1.242.507-2.485.761-3.727a1.151,1.151,0,0,0-.254-.083c-.583-.007-1.165-.018-1.748-.009a1.338,1.338,0,0,0-1.536,1.255q-.268,1.245-.526,2.493c-.413,1.994-.819,3.989-1.238,5.981A1.36,1.36,0,0,1,1306.384,43a1.332,1.332,0,0,1-1.171-1.751C1305.5,39.737,1305.829,38.234,1306.156,36.653Zm13.372,10.977c1.634,0,3.268,0,4.9,0,1.319-.005,1.882-.636,1.62-1.907q-1.523-7.387-3.09-14.765a1.229,1.229,0,0,0-1.325-1.085q-2.047-.037-4.095,0a1.224,1.224,0,0,0-1.308,1.1q-1.556,7.38-3.093,14.765c-.254,1.219.3,1.879,1.554,1.886C1316.305,47.637,1317.917,47.63,1319.528,47.63Zm35.851,25.427c0-1.863.016-3.675-.01-5.485a1.011,1.011,0,0,0-.924-1,8.094,8.094,0,0,0-1.279-.013c.113,2.3.222,4.543.334,6.829Zm-69.4-6.483c-1.828-.173-2.17.132-2.17,1.849v4.639l1.846.312ZM1340.815,79.1c1.649-.307,3.29-.659,4.924-1.034a1.3,1.3,0,0,0,1-1.468,1.367,1.367,0,0,0-1.348-1.175,3.575,3.575,0,0,0-.728.117,112.153,112.153,0,0,1-19.268,2.618,114.649,114.649,0,0,1-30.823-2.606,3.188,3.188,0,0,0-.926-.112,1.331,1.331,0,0,0-1.2,1.247c-.051.739.436,1.281,1.348,1.484a114.666,114.666,0,0,0,23.1,2.846A128.4,128.4,0,0,0,1340.815,79.1Z" transform="translate(-1279.252 -27.124)"/></svg>