<svg xmlns="http://www.w3.org/2000/svg" width="66.507" height="66.512" viewBox="0 0 66.507 66.512"><defs><style>.a{fill:#425461;}</style></defs><path class="a" d="M1311.751,100.238h-.89c-3.74,0-7.48.017-11.221-.006a6.307,6.307,0,0,1-6.224-4.563,5.763,5.763,0,0,1-.206-1.5q-.031-24.1-.036-48.208A5.612,5.612,0,0,1,1298.9,40.2c1.408-.011,2.817,0,4.225,0,.913,0,1.154.235,1.156,1.139q.008,3.705,0,7.411v.829h.89c4.572,0,9.143-.007,13.715.009.585,0,1.05-.037,1.169-.742.125-.744-.071-1.353-.727-1.532a13.23,13.23,0,0,0-2.242-.28,3.14,3.14,0,0,0-.617.079c-1.021.121-1.282-.114-1.284-1.162q0-2.32,0-4.641c0-.859.253-1.109,1.115-1.11q6.96,0,13.922,0c.823,0,1.08.232,1.168,1.031.285,2.591.588,5.181.836,7.776.056.587.361.576.781.575q10.008-.007,20.017,0a6.346,6.346,0,0,1,6.268,4.427,9.777,9.777,0,0,1,.365,2.793c.032,5.495.016,10.99.016,16.485q0,13.265,0,26.529a6.521,6.521,0,0,1-6.913,6.888c-.762,0-1.524,0-2.285,0-.89,0-1.162-.268-1.166-1.149-.007-1.5,0-3,0-4.5v-.78h-9.246c-.015.252-.039.474-.039.7q0,2.146,0,4.294c0,1.3-.139,1.441-1.411,1.441h-25.42c-.115,0-.231,0-.346,0-.8-.014-1.088-.286-1.093-1.079-.009-1.524,0-3.048,0-4.572Zm-16.918-50.466v.544q.015,21.927.032,43.852a3.876,3.876,0,0,0,.044.62,4.609,4.609,0,0,0,4.7,3.779c3.856.024,7.713.008,11.569,0a5.622,5.622,0,0,0,.569-.059c0-2.141-.01-4.239,0-6.337a4.391,4.391,0,0,1,2.922-4.211c.166-.064.328-.136.512-.212,0-1.113,0-2.2,0-3.28,0-1.269.014-1.278,1.226-1.588a6.6,6.6,0,0,0,3.137-1.52,1.648,1.648,0,0,0,.47-1.715,1.361,1.361,0,0,0-1.35-.909,15.454,15.454,0,0,0-2.277.01c-.893.06-1.2-.168-1.2-1.05-.008-1.247,0-2.494,0-3.741,0-1.3.028-1.222,1.258-1.644a15.791,15.791,0,0,0,3.021-1.447,1.478,1.478,0,0,0,.542-1.8,1.389,1.389,0,0,0-1.379-.874,19.192,19.192,0,0,0-2.275.017c-.857.047-1.159-.186-1.165-1.029-.009-1.27,0-2.541,0-3.811,0-1.253.035-1.18,1.235-1.591a16.114,16.114,0,0,0,3.028-1.438,1.49,1.49,0,0,0,.565-1.793,1.36,1.36,0,0,0-1.362-.892,22.573,22.573,0,0,0-2.341.019c-.806.036-1.116-.211-1.122-1.012-.011-1.316.016-2.633-.012-3.948a1.319,1.319,0,0,1,.852-1.473h-.989c-5.034,0-10.068-.02-15.1.011C1298.134,51.267,1296.383,51.195,1294.833,49.772Zm54.477,48.767V62.718c0-1.176.182-1.335,1.368-1.362a20.228,20.228,0,0,0,3.652-.183,4.841,4.841,0,0,0,3.648-5.579,4.788,4.788,0,0,0-4.832-4.341c-6.7-.02-13.393-.008-20.09,0a5.174,5.174,0,0,0-.551.061c.4,3.611.786,7.166,1.179,10.72q.8,7.258,1.61,14.517.593,5.333,1.182,10.665a.719.719,0,0,0,.553.73,4.3,4.3,0,0,1,2.991,4.211c.013,1.871,0,3.741,0,5.611v.776ZM1316.9,41.885v3.353a22.189,22.189,0,0,1,2.7.4,2.8,2.8,0,0,1,2.145,3.068,3.421,3.421,0,0,1-1.83,2.85c-.94.558-1.972.961-3.06,1.479v2.8c.753.059,1.422.072,2.079.17a3.16,3.16,0,0,1,1.421,5.758c-.968.6-2.045,1.029-3.065,1.552-.17.087-.408.267-.414.413-.039.894-.02,1.79-.02,2.661.738.052,1.408.058,2.064.154a3.166,3.166,0,0,1,1.393,5.8c-.952.585-2.006,1.006-3.01,1.509-.163.082-.419.22-.424.339-.035.934-.019,1.869-.019,2.763.729.041,1.354.039,1.969.119a3.018,3.018,0,0,1,2.888,3.573,3.07,3.07,0,0,1-1.44,2.269c-.933.574-1.967.983-2.953,1.473-.167.083-.439.211-.443.326-.035.98-.02,1.962-.02,2.942h17.994q-2.538-22.934-5.067-45.767Zm34.113,63.161c.7,0,1.358,0,2.021,0a4.84,4.84,0,0,0,4.983-4.988q.008-19.223,0-38.445c0-.193-.024-.387-.045-.688a6.07,6.07,0,0,1-3.275,1.879c-1.213.189-2.451.22-3.684.322ZM1313.414,105h24.908a3.084,3.084,0,0,0,.035-.308c0-4.223.015-8.447-.008-12.67a2.656,2.656,0,0,0-2.78-2.657q-9.658-.015-19.316,0a2.717,2.717,0,0,0-2.836,2.833c-.015,1.177,0,2.354,0,3.531Zm-10.823-63.127c-1.42,0-2.76-.052-4.093.012a3.948,3.948,0,0,0-3.644,3.489,3.487,3.487,0,0,0,2.577,3.981,40.058,40.058,0,0,0,5.16.3Zm23.348,58.893q-3.636,0-7.272,0c-.915,0-1.138-.226-1.141-1.146-.005-1.246-.016-2.493,0-3.74a3.087,3.087,0,0,1,3.2-3.176q5.16-.017,10.319,0a3.128,3.128,0,0,1,3.235,3.167c.032,1.269.014,2.539,0,3.809-.006.81-.278,1.083-1.08,1.085C1330.787,100.772,1328.363,100.768,1325.939,100.768Zm-6.736-1.7h13.405c0-1.163.048-2.289-.017-3.409a1.354,1.354,0,0,0-1.395-1.28q-5.294-.024-10.587,0a1.35,1.35,0,0,0-1.394,1.271C1319.17,96.768,1319.2,97.894,1319.2,99.064Z" transform="translate(-1293.174 -40.198)"/></svg>