<svg xmlns="http://www.w3.org/2000/svg" width="73.967" height="70" viewBox="0 0 73.967 70"><defs><style>.a{fill:#495561;}</style></defs><g transform="translate(-1284.887 -179.225)"><path class="a" d="M1300.939,205.074a1.535,1.535,0,0,0,.5-.756c1.989-6.7,5.172-11.1,9.465-13.08-.522,6.746,3.839,10.156,10.839,10.156q1.106,0,2.3-.114c1.423-.136,2.785-.2,4.081-.2,10.833,0,17.194,4.226,17.194,4.226s-4.19-24.052-17.422-25.894a19.771,19.771,0,0,0-2.728-.191c-6.115,0-11.54,2.94-13.514,8.439-.4.12-.792.256-1.187.411-5.566,2.184-9.6,7.359-11.977,15.362a1.541,1.541,0,0,0,2.449,1.637Zm13.123-14.349c.022-.165.05-.328.08-.489,6.606-1.152,13.093,2.6,13.167,2.642h0a1.54,1.54,0,0,0,1.977-2.3,1.519,1.519,0,0,0-.41-.351h0a25.623,25.623,0,0,0-13.486-3.252,8.867,8.867,0,0,1,2.271-2.429,12.7,12.7,0,0,1,7.506-2.239,16.821,16.821,0,0,1,2.3.163,10.725,10.725,0,0,1,6.4,3.792,29.288,29.288,0,0,1,4.825,7.92,53.864,53.864,0,0,1,2.107,5.767,41.442,41.442,0,0,0-12.68-1.946c-1.44,0-2.912.07-4.374.21-.693.067-1.366.1-2,.1-3.882,0-5.722-1.177-6.584-2.164C1314.1,194.933,1313.735,193.109,1314.062,190.725Z"/><path class="a" d="M1356.014,225.641c.094-.4.174-.815.237-1.234.894-5.913-1.574-11.994-7.316-18.057a1.541,1.541,0,0,0-2.237,2.12c4.809,5.075,7.023,10.028,6.594,14.737a9.822,9.822,0,0,0-5.543-1.932c-3.911,0-7.327,3.042-9.722,8.286-5.549,12.152-14.127,16.409-14.127,16.409a57.736,57.736,0,0,0,17.234,3.17c5.384,0,10.736-1.248,13.9-5.311C1359.49,238.114,1360.343,230.754,1356.014,225.641Zm-3.408,16.295c-2.132,2.736-5.992,4.123-11.472,4.123a47.11,47.11,0,0,1-10.333-1.318,42.071,42.071,0,0,0,10.03-13.9,14.85,14.85,0,0,1,3.5-5.056,5.153,5.153,0,0,1,3.416-1.429,7.415,7.415,0,0,1,4.412,1.839c.13.1.257.207.382.313-2.306,6.3-8.8,10.039-8.871,10.081h0a1.54,1.54,0,1,0,1.511,2.683h0a25.622,25.622,0,0,0,9.554-10.046,9.055,9.055,0,0,1,1.032,4.1A13.86,13.86,0,0,1,1352.606,241.936Z"/><path class="a" d="M1321.442,245.29a1.539,1.539,0,0,0-.907-.059c-6.8,1.629-12.2,1.069-16.06-1.658,6.745-3.228,6.98-9.583,2.129-16.4-7.748-10.882-7.147-20.439-7.147-20.439s-18.735,15.655-13.715,28.035c2.425,5.977,7.405,10.138,13.12,10.138a12.017,12.017,0,0,0,2.144-.2c.3.282.618.558.95.822a17.953,17.953,0,0,0,11.545,3.688,33.509,33.509,0,0,0,7.744-.994l.008,0a1.541,1.541,0,0,0,.189-2.939Zm-19.452-4.016c-4.3-5.144-4.3-12.637-4.294-12.723h0a1.54,1.54,0,1,0-3.079-.031h0a25.65,25.65,0,0,0,3.926,13.3,9.547,9.547,0,0,1-5.56-2.155,14.688,14.688,0,0,1-4.38-6.05,10.731,10.731,0,0,1,.083-7.441,29.3,29.3,0,0,1,4.446-8.137,54.064,54.064,0,0,1,3.942-4.71,42.081,42.081,0,0,0,7.024,15.638c2.276,3.2,3.188,6.134,2.568,8.271-.47,1.617-1.885,2.917-4.209,3.864C1302.3,241.162,1302.145,241.22,1301.99,241.274Z"/></g></svg>