<svg xmlns="http://www.w3.org/2000/svg" width="64.536" height="7" viewBox="0 0 64.536 7">
<defs>
<style>.a{fill:#495561;}</style>
</defs>
<g transform="translate(-687.732 -105.221)">
<!--<path class="a" d="M696.068,172.957a32.054,32.054,0,0,1-6.534-11.132l-.18-.452a31.684,31.684,0,0,1-1.622-10.092,33.074,33.074,0,0,1,1.9-11,30.388,30.388,0,0,1,5.675-9.824,41.89,41.89,0,0,1,10.053-8.157,29.746,29.746,0,0,1,12.844-3.289h.267a31.461,31.461,0,0,1,23.48,8.519,26.919,26.919,0,0,1,6.084,7.615,31.721,31.721,0,0,1,4.238,16.044,32.483,32.483,0,0,1-1.529,9.869,31.926,31.926,0,0,1-4.508,8.968,33.808,33.808,0,0,1-4.917,5.546,33.02,33.02,0,0,1-6.529,4.459,31.9,31.9,0,0,1-38.717-7.074Zm39.255-7.979a20.866,20.866,0,0,0,3.518-5.318,21.083,21.083,0,0,0,1.8-8.471,20.591,20.591,0,0,0-3.247-11.132,19.676,19.676,0,0,0-8.923-7.7,21.192,21.192,0,0,0-8.559-1.806,20.54,20.54,0,0,0-7.619,1.442,19.82,19.82,0,0,0-6.534,4.236l-1.532,1.624a21.362,21.362,0,0,0-3.651,6.4,20.93,20.93,0,0,0,.676,15.726,18.926,18.926,0,0,0,5.5,7.076,20.851,20.851,0,0,0,22.628,2.707A22.378,22.378,0,0,0,735.323,164.978Z"/>-->
<path class="a" d="M731.862,112.746H723.8l-2.929-3.495-2.932,3.495H709.91l8.031-7.525H723.8Z"/></g></svg>