<svg xmlns="http://www.w3.org/2000/svg" xmlns:xlink="http://www.w3.org/1999/xlink" width="169.466" height="172.157" viewBox="0 0 169.466 172.157"><defs><style>.a{fill:#bbb1a2;}.b{opacity:0.43;}.c,.d{mix-blend-mode:screen;isolation:isolate;}.c{fill:url(#a);}.d{fill:url(#b);}.e{fill:#fff;}.f{fill:#cbcbcb;}.g{fill:#495561;}</style><linearGradient id="a" x1="2.541" y1="-4.823" x2="2.541" y2="-3.432" gradientUnits="objectBoundingBox"><stop offset="0" stop-color="#fff"/><stop offset="1"/></linearGradient><linearGradient id="b" x1="2.549" y1="-4.334" x2="2.549" y2="-3.07" xlink:href="#a"/></defs><g transform="translate(-130.149 -487.62)"><circle class="a" cx="84.733" cy="84.733" r="84.733" transform="translate(130.149 487.62)"/><g class="b"><path class="c" d="M214.266,499.449a79.655,79.655,0,0,1,79.464,75.94c.057-1.2.092-2.4.092-3.62a79.556,79.556,0,1,0-159.112,0c0,1.218.035,2.415.092,3.62A79.655,79.655,0,0,1,214.266,499.449Z"/><path class="d" d="M214.262,583.709c30.16,0,57.813-7.052,79.249-18.714a79.536,79.536,0,0,0-158.5,0C156.45,576.657,184.1,583.709,214.262,583.709Z"/></g><path class="e" d="M264.622,596.428c0,2.04,0,3.952,0,5.863,0,1.525-.4,1.935-1.9,1.937q-6.819.007-13.637,0c-1.426,0-1.8-.385-1.8-1.813,0-1.965,0-3.931,0-5.941H184.108v.85c0,1.8.009,3.589,0,5.383-.007.986-.441,1.5-1.38,1.507q-7.266.033-14.533,0c-.976-.005-1.408-.532-1.42-1.584-.019-1.705-.006-3.41-.006-5.114v-1.087c-1.176,0-2.273.007-3.37,0-1.171-.009-1.54-.386-1.54-1.564,0-6.489.1-12.981-.041-19.467a8.615,8.615,0,0,1,7.561-8.588c.089-.011.177-.026.372-.055.013-.3.039-.613.039-.929,0-3.708,0-7.416,0-11.124.009-5.434,3.632-9.076,9.041-9.078q36.917-.012,73.834-.013a8.467,8.467,0,0,1,8.5,6.127,10.843,10.843,0,0,1,.354,2.83c.039,3.708.016,7.416.016,11.125V566.7c.635.136,1.218.229,1.782.388a8.475,8.475,0,0,1,6.22,8.243q0,9.735,0,19.468c0,1.278-.352,1.626-1.655,1.632C266.84,596.431,265.8,596.428,264.622,596.428Zm-5.707-29.453c.016-.18.04-.326.04-.472q0-6.237,0-12.473a4.657,4.657,0,0,0-.083-.89,6,6,0,0,0-6.14-4.962q-37.014-.009-74.028,0c-.12,0-.239,0-.359,0a5.956,5.956,0,0,0-5.917,6.062c-.027,4.008,0,8.016-.017,12.024a.838.838,0,0,0,.658.961,8.547,8.547,0,0,1,5.833,8.293c.006,1.248,0,2.5,0,3.773h73.585c0-1.4-.008-2.744,0-4.085a8.375,8.375,0,0,1,1.749-5.079A8.91,8.91,0,0,1,258.915,566.975Zm-94.477,26.8h102.44a1.9,1.9,0,0,0,.074-.333c0-6.072.065-12.145-.021-18.215a5.873,5.873,0,0,0-6.025-5.839,5.982,5.982,0,0,0-5.865,6.118c-.016,1.495,0,2.991,0,4.486,0,1.561-.38,1.931-1.973,1.933q-3.051,0-6.1,0H178.314c-1.643,0-2.019-.372-2.023-1.99,0-1.465.086-2.938-.031-4.394a8.475,8.475,0,0,0-.712-3.007,5.817,5.817,0,0,0-6.59-2.986,5.936,5.936,0,0,0-4.561,5.736c-.032,5.982-.011,11.965-.009,17.947C164.388,593.4,164.419,593.576,164.438,593.776Zm85.453,7.778h12.04v-5.068h-12.04Zm-80.468.022H181.4v-5.1H169.423ZM209.812,557.5a8.288,8.288,0,0,1,1,.5,2.962,2.962,0,0,1,.642.623,2.022,2.022,0,0,0,2.625.815,5.7,5.7,0,0,1,2.779.207c.433.086.7.118,1-.222a17.15,17.15,0,0,1,1.4-1.39,1.222,1.222,0,0,1,1.777-.017,1.192,1.192,0,0,1,.028,1.828c-1.253,1.03-1.967,2.083-1.289,3.815a3.722,3.722,0,0,1-.305,2.163.857.857,0,0,0,.271,1.068,16.861,16.861,0,0,1,1.268,1.268,1.308,1.308,0,0,1,.039,1.917,1.258,1.258,0,0,1-1.844-.08c-.993-1.14-1.932-1.994-3.653-1.263-.629.268-1.551-.189-2.345-.26a1.368,1.368,0,0,0-.9.185c-.512.407-.931.928-1.418,1.369a1.315,1.315,0,0,1-1.855.054,1.274,1.274,0,0,1,.066-1.909c1.111-.969,1.957-1.872,1.259-3.567-.272-.661.188-1.61.259-2.432a1.351,1.351,0,0,0-.2-.891,19.713,19.713,0,0,1-1.41-1.493,1.827,1.827,0,0,1-.2-1.392C208.936,558.032,209.458,557.8,209.812,557.5Zm5.245,8.753a2.212,2.212,0,1,0-2.223-2.217A2.24,2.24,0,0,0,215.057,566.256Zm-19.4.432c.367.345.95.858,1.492,1.411a1.308,1.308,0,1,1-1.832,1.838,3.331,3.331,0,0,1-.379-.381,2.107,2.107,0,0,0-2.756-.883c-.787.3-1.845-.144-2.785-.206a1.413,1.413,0,0,0-.9.191c-.49.385-.891.881-1.348,1.311a1.326,1.326,0,0,1-1.916.106,1.284,1.284,0,0,1,.055-1.909,1.362,1.362,0,0,1,.19-.19c1.138-.839,1.7-1.759,1.076-3.286a4.306,4.306,0,0,1,.271-2.426.885.885,0,0,0-.258-1.077,15.625,15.625,0,0,1-1.335-1.326,1.245,1.245,0,0,1,0-1.84,1.289,1.289,0,0,1,1.847.031,2.623,2.623,0,0,1,.381.379,2.263,2.263,0,0,0,2.983.96c.729-.285,1.729.153,2.611.211a1.551,1.551,0,0,0,.975-.2c.518-.4.932-.924,1.42-1.364a1.228,1.228,0,0,1,1.777-.032,1.313,1.313,0,0,1,.044,1.852.806.806,0,0,1-.122.131c-1.174.9-1.819,1.855-1.219,3.5C196.235,564.309,195.8,565.392,195.66,566.688Zm-2.217-2.671a2.218,2.218,0,0,0-2.248-2.183,2.245,2.245,0,0,0-2.151,2.2,2.2,2.2,0,1,0,4.4-.018Zm40.194-6.516a7.994,7.994,0,0,1,.991.515,3.553,3.553,0,0,1,.7.689,1.939,1.939,0,0,0,2.478.753,6.122,6.122,0,0,1,2.867.2c.441.087.7.092,1-.239.4-.445.828-.862,1.264-1.271A1.307,1.307,0,1,1,244.752,560a.889.889,0,0,1-.127.126,2.488,2.488,0,0,0-1.074,3.294c.262.677-.177,1.612-.236,2.435a1.56,1.56,0,0,0,.21.978c.376.5.883.89,1.305,1.353a1.264,1.264,0,0,1,.059,1.846,1.326,1.326,0,0,1-1.918-.048,1.383,1.383,0,0,1-.126-.128c-.866-.988-1.658-1.866-3.257-1.15a4.332,4.332,0,0,1-2.514-.256.887.887,0,0,0-1.07.26,17.594,17.594,0,0,1-1.332,1.33,1.286,1.286,0,0,1-1.846.019,1.261,1.261,0,0,1,.02-1.845,2.017,2.017,0,0,1,.253-.253c1.039-.837,1.747-1.678,1.087-3.208a4.035,4.035,0,0,1,.221-2.425.992.992,0,0,0-.309-1.224,6.229,6.229,0,0,1-1.3-1.344,1.826,1.826,0,0,1-.166-1.386C232.758,558.013,233.281,557.791,233.637,557.5Zm5.217,8.755a2.176,2.176,0,0,0,2.179-2.236,2.187,2.187,0,1,0-4.373.016A2.171,2.171,0,0,0,238.854,566.256Z"/><circle class="f" cx="19.776" cy="19.776" r="19.776" transform="translate(246.024 620.226)"/><path class="g" d="M278.987,640.058c-2.648-5.52-6.956-8.542-11.7-8.735-7.427-.067-12.295,3.525-14.629,8.749a.7.7,0,0,0,.01.646,15.271,15.271,0,0,0,4.339,5.7A14.242,14.242,0,0,0,279,640.7.687.687,0,0,0,278.987,640.058Zm-2.377.642a12.084,12.084,0,0,1-21.511.123.774.774,0,0,1,0-.86c2.355-4.156,5.891-6.452,10.686-6.46a11.675,11.675,0,0,1,10.748,6.457A.661.661,0,0,1,276.61,640.7Zm-10.774-5.372a5.044,5.044,0,0,0-5.081,4.986,5.045,5.045,0,1,0,5.081-4.986Zm1.806,5.354a1.582,1.582,0,0,1-1.552-1.577,1.6,1.6,0,0,1,1.634-1.569,1.574,1.574,0,1,1-.082,3.146Z"/></g></svg>