<svg xmlns="http://www.w3.org/2000/svg" xmlns:xlink="http://www.w3.org/1999/xlink" width="169.466" height="172.157" viewBox="0 0 169.466 172.157"><defs><style>.a{fill:#bbb1a2;}.b{opacity:0.43;}.c,.d{mix-blend-mode:screen;isolation:isolate;}.c{fill:url(#a);}.d{fill:url(#b);}.e{fill:#fff;}.f{fill:#cbcbcb;}.g{fill:#495561;}</style><linearGradient id="a" x1="2.541" y1="-4.823" x2="2.541" y2="-3.432" gradientUnits="objectBoundingBox"><stop offset="0" stop-color="#fff"/><stop offset="1"/></linearGradient><linearGradient id="b" x1="2.549" y1="-4.334" x2="2.549" y2="-3.07" xlink:href="#a"/></defs><g transform="translate(-453.097 -487.62)"><circle class="a" cx="84.733" cy="84.733" r="84.733" transform="translate(453.097 487.62)"/><g class="b"><path class="c" d="M537.214,499.449a79.655,79.655,0,0,1,79.464,75.94c.057-1.2.092-2.4.092-3.62a79.556,79.556,0,1,0-159.112,0c0,1.218.035,2.415.092,3.62A79.655,79.655,0,0,1,537.214,499.449Z"/><path class="d" d="M537.21,583.709c30.16,0,57.813-7.052,79.249-18.714a79.535,79.535,0,0,0-158.5,0C479.4,576.657,507.051,583.709,537.21,583.709Z"/></g><path class="e" d="M495.339,547.491a1.425,1.425,0,0,0-.288-.126c-2.237-.171-2.238-.17-2.238-2.472q0-4.137,0-8.276c0-1.275.366-1.641,1.634-1.643,3.264-.005,6.528,0,9.936,0,0-.769-.009-1.485,0-2.2a3.973,3.973,0,0,1,4.08-4.09c.856-.011,1.712,0,2.569,0,.752,0,1.24.368,1.246,1.128s-.478,1.139-1.227,1.15c-.856.013-1.713-.012-2.568.009a1.677,1.677,0,0,0-1.812,1.765c-.023.7,0,1.392,0,2.164h8.539c0-1.219-.01-2.416,0-3.612.009-.925.445-1.488,1.141-1.428.874.075,1.143.675,1.14,1.466-.005,1.171,0,2.341,0,3.581h8.46a19.106,19.106,0,0,0-.025-2.6,1.55,1.55,0,0,0-1.7-1.338c-.856-.013-1.713,0-2.569-.006-.734-.007-1.251-.328-1.266-1.108-.015-.832.507-1.172,1.292-1.173.888,0,1.777-.015,2.664,0a3.918,3.918,0,0,1,3.9,3.565c.086.846.014,1.707.014,2.642h19.524c0-.765-.014-1.518,0-2.27a3.97,3.97,0,0,1,3.943-3.937c.92-.02,1.84-.011,2.759,0a1.138,1.138,0,1,1,.02,2.273c-.856.017-1.713-.006-2.569.01a1.711,1.711,0,0,0-1.871,1.9c-.011.66,0,1.321,0,2.043h8.545c0-1.146.02-2.306-.007-3.465-.019-.813.139-1.489,1.085-1.591.743-.08,1.2.544,1.2,1.587.008,1.136,0,2.272,0,3.469h8.484a20.44,20.44,0,0,0-.022-2.525,1.561,1.561,0,0,0-1.647-1.414c-.886-.03-1.775,0-2.663-.012-.737-.006-1.25-.337-1.262-1.113-.012-.829.515-1.168,1.3-1.167.824,0,1.649-.006,2.473,0a4.012,4.012,0,0,1,4.151,4.042c.029.7,0,1.393,0,2.25h1.04q4.8,0,9.609,0c1.308,0,1.638.323,1.641,1.617q.01,4.423,0,8.847c0,1.718-.157,1.872-1.911,1.908-.156,0-.312.02-.608.04V618.04c0,1.771-.207,1.982-1.94,1.982H497.255c-1.662,0-1.916-.254-1.916-1.931q0-34.677,0-69.353Zm2.342,70.184h81.474V563.28H497.681Zm81.488-70.261H497.623v1c0,3.8.026,7.611-.019,11.415-.011.865.216,1.121,1.1,1.12q39.717-.035,79.435-.021c.334,0,.667-.034,1.028-.053Zm-84.043-2.409h86.518V537.33H495.126Zm43.27,63.758H511.663c-1.665,0-1.926-.261-1.926-1.921V570.691c0-1.49.273-1.764,1.786-1.764h53.751c1.584,0,1.837.249,1.838,1.813q0,18.075,0,36.151c0,1.608-.269,1.872-1.888,1.872Zm26.37-37.475h-52.68v35.134h52.68Zm-20.387-13.276a3.857,3.857,0,1,1,.093-7.714,3.857,3.857,0,1,1-.093,7.714Zm1.641-3.837a1.589,1.589,0,0,0-1.553-1.589,1.57,1.57,0,1,0-.035,3.14A1.59,1.59,0,0,0,546.02,554.175Zm10.423,3.837a3.857,3.857,0,1,1,3.879-3.86A3.85,3.85,0,0,1,556.443,558.012Zm.01-5.427a1.571,1.571,0,1,0,1.581,1.565A1.6,1.6,0,0,0,556.453,552.585Zm-24.019,5.427a3.858,3.858,0,0,1-.033-7.715,3.858,3.858,0,1,1,.033,7.715ZM534,554.2a1.564,1.564,0,0,0-1.512-1.615,1.569,1.569,0,1,0-.091,3.137A1.565,1.565,0,0,0,534,554.2Zm-9.738-.034a3.853,3.853,0,1,1-3.842-3.872A3.815,3.815,0,0,1,524.26,554.17Zm-2.289.032a1.566,1.566,0,1,0-1.586,1.524A1.544,1.544,0,0,0,521.971,554.2Zm36.488,25.4c2.939.047,4.509-2.554,3.984-5.478a1.379,1.379,0,0,0-1.068-.809c-.363.01-.793.5-1.041.875-.164.25-.062.676-.075,1.024-.061,1.6-.537,2.07-2.125,2.07H518.775c-1.67,0-2.073-.356-2.181-2-.052-.789-.4-1.312-1.208-1.273s-1.086.621-1.087,1.393a3.9,3.9,0,0,0,4.136,4.168q9.983,0,19.965,0C545.087,579.568,551.774,579.495,558.459,579.6Z"/><circle class="f" cx="19.776" cy="19.776" r="19.776" transform="translate(580.644 620.226)"/><path class="g" d="M613.608,640.058c-2.648-5.52-6.957-8.542-11.7-8.735-7.426-.067-12.295,3.525-14.629,8.749a.7.7,0,0,0,.011.646,15.258,15.258,0,0,0,4.338,5.7,14.243,14.243,0,0,0,21.994-5.722A.69.69,0,0,0,613.608,640.058Zm-2.378.642a12.084,12.084,0,0,1-21.511.123.774.774,0,0,1,0-.86c2.355-4.156,5.89-6.452,10.686-6.46a11.673,11.673,0,0,1,10.747,6.457A.661.661,0,0,1,611.23,640.7Zm-10.773-5.372a5.045,5.045,0,0,0-5.082,4.986,5.045,5.045,0,1,0,10.089.144A5.049,5.049,0,0,0,600.457,635.328Zm1.805,5.354a1.583,1.583,0,0,1-1.552-1.577,1.6,1.6,0,0,1,1.634-1.569,1.574,1.574,0,1,1-.082,3.146Z"/></g></svg>