<svg xmlns="http://www.w3.org/2000/svg" xmlns:xlink="http://www.w3.org/1999/xlink" width="169.466" height="172.157" viewBox="0 0 169.466 172.157"><defs><style>.a{fill:#bbb1a2;}.b{opacity:0.43;}.c,.d{mix-blend-mode:screen;isolation:isolate;}.c{fill:url(#a);}.d{fill:url(#b);}.e{fill:#fff;}.f{fill:#cbcbcb;}.g{fill:#425461;}</style><linearGradient id="a" x1="2.541" y1="-4.823" x2="2.541" y2="-3.432" gradientUnits="objectBoundingBox"><stop offset="0" stop-color="#fff"/><stop offset="1"/></linearGradient><linearGradient id="b" x1="2.549" y1="-4.334" x2="2.549" y2="-3.07" xlink:href="#a"/></defs><g transform="translate(-776.045 -487.62)"><circle class="a" cx="84.733" cy="84.733" r="84.733" transform="translate(776.045 487.62)"/><g class="b"><path class="c" d="M860.162,499.449a79.655,79.655,0,0,1,79.464,75.94c.057-1.2.092-2.4.092-3.62a79.556,79.556,0,1,0-159.112,0c0,1.218.035,2.415.092,3.62A79.655,79.655,0,0,1,860.162,499.449Z"/><path class="d" d="M860.159,583.709c30.159,0,57.812-7.052,79.249-18.714a79.536,79.536,0,0,0-158.5,0C802.346,576.657,830,583.709,860.159,583.709Z"/></g><path class="e" d="M818.969,604.315c0,2.136.006,4.2,0,6.263-.008,2.029-.789,2.839-2.777,2.849q-4.087.02-8.174,0c-1.912-.011-2.752-.857-2.752-2.763q-.008-18.057,0-36.112a11.269,11.269,0,0,1,8-10.911,1.38,1.38,0,0,0,1.171-1.6c-.036-9.272-.023-18.544-.02-27.816,0-2.5.7-3.2,3.178-3.2h85.155c2.479,0,3.184.705,3.184,3.2,0,9.231.015,18.462-.019,27.693a1.519,1.519,0,0,0,1.277,1.772,11.217,11.217,0,0,1,7.885,10.741q.038,18.116.006,36.233c0,1.9-.847,2.755-2.753,2.766q-4.088.022-8.174,0c-1.993-.01-2.769-.815-2.776-2.846-.007-2.064,0-4.128,0-6.266Zm91.427-4.738v-15.83H809.928v15.83Zm-45.627-36.662c0-2.261-.019-4.447.005-6.632a6.751,6.751,0,0,1,6.708-6.932c5.407-.081,10.817-.061,16.224-.006a6.7,6.7,0,0,1,6.49,4.973,12.3,12.3,0,0,1,.3,2.894c.045,1.893.013,3.788.013,5.675h6.8v-27.2H819.047V562.9h6.787c0-2.078-.006-4.066,0-6.054.019-4.687,2.847-7.512,7.535-7.519q7.38-.011,14.761,0c4.623.005,7.434,2.821,7.444,7.448,0,2.022,0,4.045,0,6.139ZM809.915,579H910.479c0-1.616.033-3.156-.007-4.693a6.753,6.753,0,0,0-6.869-6.624q-10.187.04-20.374.062-15.981.015-31.962,0-17.325-.016-34.649-.063a6.688,6.688,0,0,0-6.67,5.774A55.231,55.231,0,0,0,809.915,579Zm41.07-16.072c0-2.382.057-4.653-.022-6.919a2.106,2.106,0,0,0-2.27-2.072q-7.983-.036-15.966,0a1.97,1.97,0,0,0-2.181,1.737c-.152,2.406-.047,4.828-.047,7.255Zm18.354-.058h20.584c0-2.291.04-4.482-.015-6.671a2.215,2.215,0,0,0-2.366-2.263q-7.922-.035-15.844,0a2.169,2.169,0,0,0-2.344,2.267C869.295,558.39,869.339,560.583,869.339,562.868Zm-59.43,45.877h4.429v-4.373h-4.429ZM910.423,604.3c-1.336,0-2.584-.033-3.828.03a.916.916,0,0,0-.626.635c-.062,1.243-.029,2.49-.029,3.8h4.483Z"/><circle class="f" cx="19.776" cy="19.776" r="19.776" transform="translate(901.31 620.226)"/><path class="g" d="M934.274,640.058c-2.648-5.52-6.957-8.542-11.7-8.735-7.427-.067-12.3,3.525-14.629,8.749a.7.7,0,0,0,.01.646,15.258,15.258,0,0,0,4.338,5.7,14.243,14.243,0,0,0,21.994-5.722A.687.687,0,0,0,934.274,640.058Zm-2.378.642a12.084,12.084,0,0,1-21.51.123.774.774,0,0,1,0-.86c2.355-4.156,5.891-6.452,10.686-6.46a11.674,11.674,0,0,1,10.747,6.457A.661.661,0,0,1,931.9,640.7Zm-10.773-5.372a5.044,5.044,0,0,0-5.081,4.986,5.045,5.045,0,1,0,5.081-4.986Zm1.806,5.354a1.583,1.583,0,0,1-1.553-1.577,1.6,1.6,0,0,1,1.635-1.569,1.574,1.574,0,1,1-.082,3.146Z"/></g></svg>