<svg xmlns="http://www.w3.org/2000/svg" xmlns:xlink="http://www.w3.org/1999/xlink" width="169.466" height="172.157" viewBox="0 0 169.466 172.157"><defs><style>.a{fill:#bbb1a2;}.b{opacity:0.43;}.c,.d{mix-blend-mode:screen;isolation:isolate;}.c{fill:url(#a);}.d{fill:url(#b);}.e{fill:#cbcbcb;}.f{fill:#425461;}.g{fill:#fff;}</style><linearGradient id="a" x1="2.541" y1="-4.823" x2="2.541" y2="-3.432" gradientUnits="objectBoundingBox"><stop offset="0" stop-color="#fff"/><stop offset="1"/></linearGradient><linearGradient id="b" x1="2.549" y1="-4.334" x2="2.549" y2="-3.07" xlink:href="#a"/></defs><g transform="translate(-1098.993 -487.62)"><circle class="a" cx="84.733" cy="84.733" r="84.733" transform="translate(1098.993 487.62)"/><g class="b"><path class="c" d="M1183.11,499.449a79.656,79.656,0,0,1,79.465,75.94c.056-1.2.091-2.4.091-3.62a79.556,79.556,0,1,0-159.112,0c0,1.218.035,2.415.092,3.62A79.655,79.655,0,0,1,1183.11,499.449Z"/><path class="d" d="M1183.107,583.709c30.16,0,57.812-7.052,79.249-18.714a79.536,79.536,0,0,0-158.5,0C1125.3,576.657,1152.947,583.709,1183.107,583.709Z"/></g><circle class="e" cx="19.776" cy="19.776" r="19.776" transform="translate(1223.773 620.226)"/><path class="f" d="M1256.736,640.058c-2.647-5.52-6.956-8.542-11.7-8.735-7.427-.067-12.295,3.525-14.629,8.749a.7.7,0,0,0,.011.646,15.257,15.257,0,0,0,4.338,5.7,14.243,14.243,0,0,0,21.994-5.722A.687.687,0,0,0,1256.736,640.058Zm-2.377.642a12.084,12.084,0,0,1-21.511.123.774.774,0,0,1,0-.86c2.355-4.156,5.89-6.452,10.686-6.46a11.673,11.673,0,0,1,10.747,6.457A.661.661,0,0,1,1254.359,640.7Zm-10.773-5.372a5.045,5.045,0,0,0-5.082,4.986,5.045,5.045,0,1,0,5.082-4.986Zm1.8,5.354a1.583,1.583,0,0,1-1.552-1.577,1.6,1.6,0,0,1,1.634-1.569,1.574,1.574,0,1,1-.082,3.146Z"/><path class="g" d="M1199.575,569.944V534.851c0-1.829.566-2.386,2.425-2.386q6.651,0,13.3,0c1.584,0,2.206.621,2.206,2.211q0,17.946-.006,35.892c0,2.9.1,5.813-.186,8.687a25.243,25.243,0,0,1-9.241,17.277c-2.787,2.358-4.613,5.253-4.629,8.941a33.064,33.064,0,0,0,.88,5.722c.138.788.378,1.558.542,2.342a3.993,3.993,0,0,1-4.04,5c-3.112.013-6.224,0-9.336,0q-10.813,0-21.628,0c-3.208,0-4.973-2.222-4.25-5.328.44-1.888.995-3.762,1.261-5.676a11.39,11.39,0,0,0-4.6-10.982c-1.817-1.451-3.837-2.644-5.732-4-2.841-2.035-5.7-4.053-8.46-6.192a18.488,18.488,0,0,1-4.389-4.9,9.691,9.691,0,0,1-1.577-5.51c.04-1.294,0-2.59.009-3.884.006-1.466.663-2.122,2.146-2.123q10.037-.006,20.072,0h35.231Zm-53.788,3.648c-.18,3.576-.324,4.666,2.241,7.7a12.378,12.378,0,0,0,1.973,1.976c3.194,2.383,6.429,4.711,9.657,7.047,1.783,1.29,3.692,2.429,5.352,3.859a14.733,14.733,0,0,1,5.458,13.508,61.641,61.641,0,0,1-1.289,6.063c-.264,1.183-.25,1.216.994,1.216h30.18c1.077,0,1.15-.086.914-1.1-.318-1.359-.643-2.717-.963-4.075-1.481-6.28.333-11.539,5.16-15.691a22.87,22.87,0,0,0,8.351-15.591c.156-1.6.023-3.236.023-4.913Zm57.413-3.726h10.653V536.087H1203.2Zm6.677-27.983a1.793,1.793,0,1,0-3.579-.056q-.036,2.754,0,5.508a1.789,1.789,0,1,0,3.576-.021c.017-.905,0-1.81,0-2.715S1209.89,542.788,1209.877,541.883Z"/></g></svg>